<?xml version="1.0" encoding="UTF-8" standalone="no"?>
<svg viewBox="0 0 128 128" version="1.1" id="svg1" sodipodi:docname="java_spring.svg"
   inkscape:version="1.3.2 (091e20e, 2023-11-25, custom)" xmlns:inkscape="http://www.inkscape.org/namespaces/inkscape"
   xmlns:sodipodi="http://sodipodi.sourceforge.net/DTD/sodipodi-0.dtd" xmlns="http://www.w3.org/2000/svg"
   xmlns:svg="http://www.w3.org/2000/svg">
   <defs id="defs1" />
   <sodipodi:namedview id="namedview1" pagecolor="#ffffff" bordercolor="#111111" borderopacity="1"
      inkscape:showpageshadow="0" inkscape:pageopacity="0" inkscape:pagecheckerboard="1" inkscape:deskcolor="#d1d1d1"
      inkscape:zoom="6.3515625" inkscape:cx="72.501845" inkscape:cy="62.583026" inkscape:window-width="1920"
      inkscape:window-height="1009" inkscape:window-x="-8" inkscape:window-y="-8" inkscape:window-maximized="1"
      inkscape:current-layer="svg1" />
   <path
      d="m 24.798828,102.20117 c -3.001997,0 -5.488281,2.483 -5.488281,5.5 0,3.018 2.470284,5.50196 5.488281,5.50196 a 5.5,5.5 0 0 0 4.267578,-2.03321 c 1.900998,-2.351 1.534592,-5.83438 -0.816406,-7.73437 -0.966999,-0.801 -2.201173,-1.23438 -3.451172,-1.23438 z"
      style="fill:#ffffff;fill-opacity:1;stroke:#77bc1f;stroke-opacity:1;stroke-width:0.3;stroke-dasharray:none"
      id="path4" />
   <path
      d="M 115.83594,13.527344 C 109.16594,27.39733 92.772642,38.033394 78.597656,41.400391 65.32267,44.568387 53.564425,41.96813 41.273437,46.703125 13.206466,57.506114 13.675203,90.964429 29.117187,98.482422 l 0.916016,0.484375 c 0,0 22.681294,-4.501724 35.238281,-9.136719 18.326982,-6.784993 38.441136,-23.472551 45.078126,-42.894531 -3.586,20.18898 -20.813252,39.593899 -38.240235,48.46289 -9.254991,4.750993 -16.459562,5.784943 -31.685547,11.085943 -1.884998,0.71699 -3.333984,1.33398 -3.333984,1.33398 3.868996,-0.633 7.720703,-0.86719 7.720703,-0.86719 21.695978,-1.017 55.532013,6.10245 71.375003,-15.019529 16.10998,-21.472979 7.12138,-56.214319 -0.34961,-78.404297 z"
      style="fill:#ffffff;fill-opacity:1;stroke:#77bc1f;stroke-opacity:1;stroke-width:0.3;stroke-dasharray:none"
      id="path3" />
   <path
      d="M 64.205078,-0.02539063 C 28.984113,-0.02539063 0,28.982223 0,64.242187 a 64.316,64.316 0 0 0 19.945312,46.562503 l 2.367188,2.09961 a 64.22,64.22 0 0 0 41.359375,15.12109 c 33.486967,0 61.635535,-26.23867 64.019535,-59.68164 C 129.4424,51.972766 124.64016,31.265554 116.45117,6.6425781 A 59.104,59.104 0 0 1 109.61523,18.779297 64.249,64.249 0 0 0 64.205078,-0.02539063 Z M 115.83594,13.527344 c 7.47099,22.189978 16.45959,56.931318 0.34961,78.404297 -15.84299,21.121979 -49.679025,14.002529 -71.375003,15.019529 0,0 -3.851707,0.23419 -7.720703,0.86719 0,0 1.448986,-0.61699 3.333984,-1.33398 15.225985,-5.301 22.430556,-6.33495 31.685547,-11.085943 17.426983,-8.868991 34.654235,-28.27391 38.240235,-48.46289 -6.63699,19.42198 -26.751144,36.109538 -45.078126,42.894531 -12.556987,4.634995 -35.238281,9.136719 -35.238281,9.136719 L 29.117187,98.482422 C 13.675203,90.964429 13.206466,57.506114 41.273437,46.703125 53.564425,41.96813 65.32267,44.568387 78.597656,41.400391 92.772642,38.033394 109.16594,27.39733 115.83594,13.527344 Z M 24.798828,102.20117 c 1.249999,0 2.484173,0.43338 3.451172,1.23438 2.350998,1.89999 2.717404,5.38337 0.816406,7.73437 a 5.5,5.5 0 0 1 -4.267578,2.03321 c -3.017997,0 -5.488281,-2.48396 -5.488281,-5.50196 0,-3.017 2.486284,-5.5 5.488281,-5.5 z"
      style="fill:#77bc1f" id="path2" />
</svg>