<?xml version="1.0" encoding="UTF-8" standalone="no"?>
<svg viewBox="0 0 128 128" version="1.1" id="svg1" sodipodi:docname="javascript.svg"
   inkscape:version="1.3.2 (091e20e, 2023-11-25, custom)" xmlns:inkscape="http://www.inkscape.org/namespaces/inkscape"
   xmlns:sodipodi="http://sodipodi.sourceforge.net/DTD/sodipodi-0.dtd" xmlns="http://www.w3.org/2000/svg"
   xmlns:svg="http://www.w3.org/2000/svg">
   <defs id="defs1" />
   <sodipodi:namedview id="namedview1" pagecolor="#ffffff" bordercolor="#111111" borderopacity="1"
      inkscape:showpageshadow="0" inkscape:pageopacity="0" inkscape:pagecheckerboard="1" inkscape:deskcolor="#d1d1d1"
      inkscape:zoom="6.3515625" inkscape:cx="64" inkscape:cy="63.685117" inkscape:window-width="1920"
      inkscape:window-height="1009" inkscape:window-x="-8" inkscape:window-y="-8" inkscape:window-maximized="1"
      inkscape:current-layer="svg1" />
   <path
      d="m 96.201172,57.09375 -3.6875,0.476562 c -3.533997,0.892 -6.901955,2.749331 -8.876953,5.236329 -5.925994,6.723993 -4.236384,18.490989 2.974609,23.333984 7.102993,5.331995 17.540052,6.545255 18.873052,11.53125 1.29699,6.104995 -4.48639,8.080905 -10.23438,7.378905 -4.236996,-0.881 -6.591674,-3.03422 -9.138672,-6.949218 -4.688995,2.712998 -4.688817,2.712378 -9.507812,5.484378 1.142998,2.499 2.343767,3.62992 4.259765,5.79492 9.067991,9.19799 31.760079,8.7462 35.830079,-5.17578 0.167,-0.476 1.2609,-3.66604 0.37891,-8.582033 -0.916,-5.709994 -4.64089,-10.506473 -15.67188,-14.980469 -3.831996,-1.760998 -8.103954,-3.022784 -9.376953,-5.925781 -0.452999,-1.689998 -0.511562,-2.641064 -0.226562,-3.664063 0.821999,-3.319996 4.783784,-4.356296 7.925781,-3.404297 2.023994,0.678 3.939754,2.238612 5.093754,4.72461 5.40299,-3.497997 5.39011,-3.474909 9.16211,-5.878906 -1.38,-2.140998 -2.11749,-3.128923 -3.02149,-4.044922 -3.249,-3.627997 -7.67487,-5.498469 -14.755858,-5.355469 z"
      style="fill:#ffffff;fill-opacity:1;stroke:#f0db4f;stroke-opacity:1;stroke-width:0.3;stroke-dasharray:none"
      id="path4" />
   <path
      d="m 58.480469,58 c 0,9.99999 -0.04787,20.07251 -0.04687,30.1875 0,6.436994 0.334108,12.25641 -0.712891,14.06641 -1.713998,3.55799 -6.153783,3.11578 -8.175781,2.42578 -2.057998,-1.011 -3.104361,-2.45038 -4.31836,-4.48438 -0.333999,-0.583997 -0.584968,-1.037263 -0.667968,-1.072263 l -9.519532,5.830083 c 1.582999,3.24899 3.914394,6.07034 6.900391,7.90234 4.461996,2.678 10.461428,3.49859 16.732422,2.05859 4.080996,-1.189 7.602267,-3.65139 9.447266,-7.40039 2.665997,-4.91499 2.095312,-10.781333 2.070312,-17.361326 0.06,-10.73399 0,-21.152355 0,-32.152344 z"
      style="fill:#ffffff;fill-opacity:1;stroke:#f0db4f;stroke-opacity:1;stroke-width:0.3;stroke-dasharray:none"
      id="path3" />
   <path
      d="M 2,1 V 126 H 127 V 1 Z m 94.201172,56.09375 c 7.080988,-0.143 11.506858,1.727472 14.755858,5.355469 0.904,0.915999 1.64149,1.903924 3.02149,4.044922 -3.772,2.403997 -3.75912,2.380909 -9.16211,5.878906 -1.154,-2.485998 -3.06976,-4.04661 -5.093754,-4.72461 -3.141997,-0.951999 -7.103782,0.0843 -7.925781,3.404297 -0.285,1.022999 -0.226437,1.974065 0.226562,3.664063 1.272999,2.902997 5.544957,4.164783 9.376953,5.925781 11.03099,4.473996 14.75588,9.270475 15.67188,14.980469 0.88199,4.915993 -0.21191,8.106033 -0.37891,8.582033 -4.07,13.92198 -26.762088,14.37377 -35.830079,5.17578 -1.915998,-2.165 -3.116767,-3.29592 -4.259765,-5.79492 4.818995,-2.772 4.818817,-2.77138 9.507812,-5.484378 2.546998,3.914998 4.901676,6.068218 9.138672,6.949218 5.74799,0.702 11.53137,-1.27391 10.23438,-7.378905 -1.333,-4.985995 -11.770059,-6.199255 -18.873052,-11.53125 -7.210993,-4.842995 -8.900603,-16.609991 -2.974609,-23.333984 1.974998,-2.486998 5.342956,-4.344329 8.876953,-5.236329 z M 58.480469,58 h 11.708984 c 0,10.999989 0.06,21.418354 0,32.152344 0.025,6.579993 0.595685,12.446336 -2.070312,17.361326 -1.844999,3.749 -5.36627,6.21139 -9.447266,7.40039 -6.270994,1.44 -12.270426,0.61941 -16.732422,-2.05859 -2.985997,-1.832 -5.317392,-4.65335 -6.900391,-7.90234 l 9.519532,-5.830083 c 0.083,0.035 0.333969,0.488266 0.667968,1.072263 1.213999,2.034 2.260362,3.47338 4.31836,4.48438 2.021998,0.69 6.461783,1.13221 8.175781,-2.42578 1.046999,-1.81 0.712891,-7.629416 0.712891,-14.06641 -10e-4,-10.11499 0.04687,-20.18751 0.04687,-30.1875 z"
      style="fill:#f0db4f;stroke:none;stroke-opacity:1" id="path2" />
</svg>