<?xml version="1.0" encoding="UTF-8" standalone="no"?>
<!-- Uploaded to: SVG Repo, www.svgrepo.com, Generator: SVG Repo Mixer Tools -->

<svg
   width="100"
   height="100"
   viewBox="0 0 1.44 1.44"
   fill="none"
   version="1.1"
   id="svg1"
   sodipodi:docname="moon_dark.svg"
   inkscape:version="1.3.2 (091e20e, 2023-11-25, custom)"
   xmlns:inkscape="http://www.inkscape.org/namespaces/inkscape"
   xmlns:sodipodi="http://sodipodi.sourceforge.net/DTD/sodipodi-0.dtd"
   xmlns="http://www.w3.org/2000/svg"
   xmlns:svg="http://www.w3.org/2000/svg">
  <defs
     id="defs1" />
  <sodipodi:namedview
     id="namedview1"
     pagecolor="#ffffff"
     bordercolor="#111111"
     borderopacity="1"
     inkscape:showpageshadow="0"
     inkscape:pageopacity="0"
     inkscape:pagecheckerboard="1"
     inkscape:deskcolor="#d1d1d1"
     inkscape:zoom="8.13"
     inkscape:cx="47.416974"
     inkscape:cy="50"
     inkscape:window-width="1920"
     inkscape:window-height="1009"
     inkscape:window-x="-8"
     inkscape:window-y="-8"
     inkscape:window-maximized="1"
     inkscape:current-layer="svg1" />
  <path
     d="M 1.1703313,0.7098092 1.1380263,0.6902932 Z M 0.72122162,0.26069757 0.70169979,0.22839286 v 0 z M 1.1795309,0.7170159 c 0,0.25709562 -0.20842035,0.4655161 -0.46551597,0.4655161 V 1.25802 C 1.0128058,1.2580212 1.25502,1.015807 1.25502,0.71701615 Z M 0.71401493,1.182532 c -0.25709715,0 -0.4655159,-0.20842048 -0.4655159,-0.4655161 h -0.075489 c 0,0.2987909 0.24221615,0.5410051 0.54100493,0.5410051 z M 0.24849903,0.7170159 c 0,-0.25709715 0.20841875,-0.4655159 0.4655159,-0.4655159 V 0.176011 C 0.41522615,0.176011 0.17301,0.41822714 0.17301,0.71701592 Z m 0.64165711,0.11323348 c -0.15981538,0 -0.28937481,-0.1295593 -0.28937481,-0.28937469 h -0.0754894 c 0,0.20151042 0.16335328,0.36486383 0.36486384,0.36486383 z M 1.138027,0.69029278 c -0.050734,0.083959 -0.14278,0.13995671 -0.24787086,0.13995671 v 0.0754894 c 0.13260416,0 0.24864596,-0.0707639 0.31248456,-0.17640795 z M 0.60078133,0.54087481 c 0,-0.10509027 0.0559983,-0.19713727 0.13995672,-0.24787241 L 0.70170011,0.22839274 C 0.59605524,0.29222889 0.52529231,0.40827015 0.52529231,0.54087481 Z M 0.7140148,0.2515 c -0.004456,0 -0.00968,-0.002013 -0.0134672,-0.005951 C 0.6973366,0.24221 0.6965956,0.239045 0.6964216,0.237762 0.69621014,0.236199 0.69631588,0.231646 0.7017036,0.228389 L 0.7407413,0.2929983 C 0.7660659,0.2776987 0.774208,0.2496831 0.7712288,0.2276549 0.7681368,0.2047591 0.750081,0.17601 0.7140173,0.17601 Z m 0.4886258,0.47783069 c -0.00326,0.005387 -0.0078,0.005491 -0.00939,0.005282 -0.00127,-1.7618e-4 -0.00444,-9.21e-4 -0.00778,-0.004126 -0.00394,-0.003787 -0.00597,-0.009009 -0.00597,-0.0134672 h 0.075488 c 0,-0.0360635 -0.028753,-0.0541211 -0.051649,-0.0572106 -0.022028,-0.002974 -0.050046,0.005162 -0.065343,0.0304875 z"
     fill="#94a3b8"
     id="path1"
     style="stroke-width:0.999998;fill:#f8f8ff;fill-opacity:1" />
</svg>
