<?xml version="1.0" encoding="UTF-8" standalone="no"?>
<!-- Uploaded to: SVG Repo, www.svgrepo.com, Generator: SVG Repo Mixer Tools -->

<svg
   width="800px"
   height="800px"
   viewBox="0 -101.5 512 512"
   version="1.1"
   preserveAspectRatio="xMidYMid"
   id="svg1"
   sodipodi:docname="nextjs-banner-dark.svg"
   inkscape:version="1.3.2 (091e20e, 2023-11-25, custom)"
   xmlns:inkscape="http://www.inkscape.org/namespaces/inkscape"
   xmlns:sodipodi="http://sodipodi.sourceforge.net/DTD/sodipodi-0.dtd"
   xmlns="http://www.w3.org/2000/svg"
   xmlns:svg="http://www.w3.org/2000/svg">
  <defs
     id="defs1" />
  <sodipodi:namedview
     id="namedview1"
     pagecolor="#ffffff"
     bordercolor="#111111"
     borderopacity="1"
     inkscape:showpageshadow="0"
     inkscape:pageopacity="0"
     inkscape:pagecheckerboard="1"
     inkscape:deskcolor="#d1d1d1"
     inkscape:zoom="1.01625"
     inkscape:cx="400"
     inkscape:cy="400"
     inkscape:window-width="1920"
     inkscape:window-height="1009"
     inkscape:window-x="-8"
     inkscape:window-y="-8"
     inkscape:window-maximized="1"
     inkscape:current-layer="g1" />
  <g
     id="g1"
     style="fill:#000000;fill-opacity:1">
    <path
       d="m 120.81043,80.56131 h 96.5679 v 7.675349 h -87.71584 v 57.767101 h 82.48507 v 7.67535 h -82.48507 v 63.42261 h 88.72175 v 7.67535 h -97.57381 z m 105.21877,0 h 10.26034 l 45.46738,63.42262 46.4733,-63.42262 L 391.44149,0 287.59123,150.64936 l 53.51471,74.12771 h -10.6627 l -48.68632,-67.46227 -48.8875,67.46227 H 222.4079 l 53.91708,-74.12771 z m 118.89922,7.675349 V 80.56131 h 110.04717 v 7.675349 H 404.27744 V 224.77707 h -8.85206 V 88.236659 Z M 0,80.56131 H 11.065071 L 163.64593,308.88401 100.59156,224.77707 9.2544233,91.468385 8.8520571,224.77707 H 0 Z m 454.08371,134.22416 c -1.80854,0 -3.16495,-1.40129 -3.16495,-3.21219 0,-1.81089 1.35641,-3.21218 3.16495,-3.21218 1.83006,0 3.16494,1.40129 3.16494,3.21218 0,1.8109 -1.33488,3.21219 -3.16494,3.21219 z m 8.69821,-8.45085 h 4.73664 c 0.0646,2.56543 1.93772,4.2901 4.69359,4.2901 3.07882,0 4.82277,-1.85402 4.82277,-5.3249 v -21.98946 h 4.82277 v 22.01102 c 0,6.2519 -3.61708,9.85214 -9.60248,9.85214 -5.61939,0 -9.47329,-3.49244 -9.47329,-8.8389 z m 25.38412,-0.28026 h 4.77971 c 0.40908,2.95349 3.29413,4.82906 7.44946,4.82906 3.87544,0 6.71743,-2.00492 6.71743,-4.76438 0,-2.37141 -1.80854,-3.79426 -5.92081,-4.76439 l -4.00462,-0.97012 c -5.61939,-1.31506 -8.18149,-4.0314 -8.18149,-8.60176 0,-5.54048 4.52135,-9.22695 11.30337,-9.22695 6.30836,0 10.91582,3.68647 11.19571,8.92513 h -4.69358 c -0.45214,-2.86725 -2.94964,-4.65659 -6.56672,-4.65659 -3.81085,0 -6.35142,1.83246 -6.35142,4.63504 0,2.2205 1.6363,3.49244 5.68398,4.44101 l 3.42331,0.84077 c 6.37294,1.48752 8.99963,4.07451 8.99963,8.75267 0,5.95008 -4.60747,9.67967 -11.9708,9.67967 -6.88967,0 -11.51867,-3.55712 -11.86316,-9.11916 z"
       fill="#000000"
       fill-rule="nonzero"
       id="path1"
       style="fill:#c5c5c5;fill-opacity:1"
       sodipodi:nodetypes="cccccccccccccccccccccccccccccccccccccccccccsssssccssccsscccssccssccssccssc" />
  </g>
</svg>
