<?xml version="1.0" encoding="UTF-8" standalone="no"?>
<!-- Uploaded to: SVG Repo, www.svgrepo.com, Generator: SVG Repo Mixer Tools -->

<svg
   height="48"
   width="48"
   version="1.1"
   id="Capa_1"
   viewBox="0 0 13.98018 13.98018"
   xml:space="preserve"
   sodipodi:docname="system_dark.svg"
   inkscape:version="1.3.2 (091e20e, 2023-11-25, custom)"
   xmlns:inkscape="http://www.inkscape.org/namespaces/inkscape"
   xmlns:sodipodi="http://sodipodi.sourceforge.net/DTD/sodipodi-0.dtd"
   xmlns="http://www.w3.org/2000/svg"
   xmlns:svg="http://www.w3.org/2000/svg">
   <defs
   id="defs2" />
   <sodipodi:namedview
   id="namedview2"
   pagecolor="#ffffff"
   bordercolor="#111111"
   borderopacity="1"
   inkscape:showpageshadow="0"
   inkscape:pageopacity="0"
   inkscape:pagecheckerboard="1"
   inkscape:deskcolor="#d1d1d1"
   inkscape:zoom="16.26"
   inkscape:cx="25.615006"
   inkscape:cy="24.323493"
   inkscape:window-width="1920"
   inkscape:window-height="1009"
   inkscape:window-x="-8"
   inkscape:window-y="-8"
   inkscape:window-maximized="1"
   inkscape:current-layer="Capa_1" />
   <g
   id="g2"
   transform="matrix(0.0475,0,0,0.0475,1.4562688,1.5379958)"
   style="stroke-width:21.0527;fill:#f8f8ff;fill-opacity:1">
      <path
   style="fill:#f8f8ff;stroke-width:21.0527;fill-opacity:1"
   d="M 58.24,201.255 H 47.904 c -2.761,0 -5,2.238 -5,5 0,2.762 2.239,5 5,5 H 58.24 c 2.761,0 5,-2.238 5,-5 0,-2.762 -2.239,-5 -5,-5 z"
   id="path1" />
      <path
   style="fill:#f8f8ff;stroke-width:21.0527;fill-opacity:1"
   d="M 210.503,3.755 H 42.513 c -12.407,0 -22.5,10.094 -22.5,22.5 V 71.262 H 15.5 C 6.953,71.262 0,78.215 0,86.762 v 126.986 c 0,8.547 6.953,15.5 15.5,15.5 h 75.145 c 8.547,0 15.5,-6.953 15.5,-15.5 v -11.167 h 54.529 22.167 c 4.142,0 7.5,-3.357 7.5,-7.5 0,-4.143 -3.358,-7.5 -7.5,-7.5 h -22.167 v -14.334 h 49.829 c 12.407,0 22.5,-10.094 22.5,-22.5 V 26.255 c 0,-12.406 -10.093,-22.5 -22.5,-22.5 z M 15.5,86.262 h 75.145 c 0.257,0 0.5,0.243 0.5,0.5 v 98.779 H 15 V 86.762 c 0,-0.257 0.243,-0.5 0.5,-0.5 z M 90.645,214.248 H 15.5 c -0.257,0 -0.5,-0.243 -0.5,-0.5 v -18.207 h 76.145 v 18.207 c 0,0.257 -0.244,0.5 -0.5,0.5 z m 55.029,-26.667 h -38.333 v -14.334 h 38.333 z m 72.329,-36.834 c 0,4.136 -3.364,7.5 -7.5,7.5 H 106.145 V 86.762 c 0,-8.547 -6.953,-15.5 -15.5,-15.5 H 35.013 V 26.255 c 0,-4.136 3.364,-7.5 7.5,-7.5 h 167.99 c 4.136,0 7.5,3.364 7.5,7.5 z"
   id="path2" />
   </g>
</svg>
