<?xml version="1.0" encoding="UTF-8" standalone="no"?>
<svg viewBox="0 0 128 128" version="1.1" id="svg1" sodipodi:docname="git.svg"
   inkscape:version="1.3.2 (091e20e, 2023-11-25, custom)" xmlns:inkscape="http://www.inkscape.org/namespaces/inkscape"
   xmlns:sodipodi="http://sodipodi.sourceforge.net/DTD/sodipodi-0.dtd" xmlns="http://www.w3.org/2000/svg"
   xmlns:svg="http://www.w3.org/2000/svg">
   <defs id="defs1">
      <linearGradient id="swatch16" inkscape:swatch="solid">
         <stop style="stop-color:#f34f29;stop-opacity:1;" offset="0" id="stop16" />
      </linearGradient>
   </defs>
   <sodipodi:namedview id="namedview1" pagecolor="#ffffff" bordercolor="#111111" borderopacity="1"
      inkscape:showpageshadow="0" inkscape:pageopacity="0" inkscape:pagecheckerboard="1" inkscape:deskcolor="#d1d1d1"
      inkscape:zoom="90.509668" inkscape:cx="46.000611" inkscape:cy="20.600009" inkscape:window-width="1920"
      inkscape:window-height="1009" inkscape:window-x="-8" inkscape:window-y="-8" inkscape:window-maximized="1"
      inkscape:current-layer="svg1" />
   <path
      d="m 41.060547,20.335937 v 0.002 L 55.369141,34.64653 c -1.467999,3.515997 -0.779966,7.716175 2.082031,10.576172 0.90387,0.908378 1.981753,1.624583 3.167969,2.109375 v 34.660156 c -1.185257,0.486144 -2.262825,1.202798 -3.167969,2.109375 -3.777996,3.777997 -3.777996,9.899598 0,13.683594 3.774996,3.776998 9.900691,3.776998 13.679687,0 3.777997,-3.784996 3.777997,-9.906597 0,-13.683594 -0.747979,-0.744363 -1.611912,-1.361922 -2.558593,-1.828125 l 0.002,-34.339843 13.046875,13.046875 c -1.484773,3.610544 -0.654166,7.760144 2.105468,10.521484 3.777917,3.779746 9.905678,3.779746 13.683594,0 3.779997,-3.778996 3.779997,-9.902691 0,-13.679687 -2.701997,-2.707998 -6.609144,-3.461921 -9.99414,-2.294922 L 73.423828,41.535156 c 1.166999,-3.385996 0.410029,-7.28619 -2.292969,-9.992187 -2.688997,-2.688998 -6.558597,-3.453452 -9.933593,-2.314453 l -14.515625,-14.515625 -0.05077,0.05079 z"
      style="fill:#ffffff;fill-opacity:1;fill-rule:evenodd;stroke:none;stroke-width:0;stroke-opacity:1;stroke-dasharray:none"
      id="path4" sodipodi:nodetypes="ccccccccccccccccccccccc" />
   <path
      d="m 63.875,0.8828125 c -2.080623,0 -4.163455,0.793861 -5.751953,2.3808594 l -11.44336,11.4472661 0.002,0.002 v 0 l 14.515625,14.515625 c 3.374996,-1.138999 7.244596,-0.374545 9.933593,2.314453 2.702998,2.705997 3.459968,6.606191 2.292969,9.992187 l 13.992188,13.992188 c 3.384996,-1.166999 7.292143,-0.413076 9.99414,2.294922 3.779994,3.776996 3.779994,9.900691 0,13.679687 -3.777916,3.779746 -9.905677,3.779746 -13.683594,0 -2.759634,-2.76134 -3.590241,-6.91094 -2.105468,-10.521484 l -13.046875,-13.046875 -0.002,34.339843 c 0.946681,0.466203 1.810614,1.083762 2.558593,1.828125 3.777997,3.776997 3.777997,9.898598 0,13.683594 -3.778996,3.776994 -9.904691,3.776994 -13.679687,0 -3.777996,-3.783996 -3.777996,-9.905597 0,-13.683594 0.905144,-0.906577 1.982712,-1.623231 3.167969,-2.109375 V 47.332031 C 59.432925,46.847239 58.355042,46.131034 57.451172,45.222656 54.589175,42.362659 53.901142,38.162481 55.369141,34.646484 L 41.060547,20.337891 v -0.002 l -0.0039,-0.0039 -37.7929691,37.791016 c -3.17493183,3.175925 -3.17493183,8.324075 0,11.5 L 58.380859,124.73633 c 3.173997,3.17399 8.321004,3.17399 11.5,0 L 124.73828,69.878906 c 3.17422,-3.176773 3.17281,-8.323779 -0.002,-11.5 L 69.621094,3.2636719 C 68.035095,1.6766735 65.955623,0.8828125 63.875,0.8828125 Z"
      style="fill:#f34f29;stroke:none;stroke-opacity:1" id="path3" />
</svg>